<svg width="167" height="72" viewBox="0 0 167 72" fill="none" xmlns="http://www.w3.org/2000/svg">
<path d="M78.24 31V8.6H89.696C92.64 8.6 94.8373 9.144 96.288 10.232C97.7387 11.2987 98.464 12.7067 98.464 14.456C98.464 15.608 98.1547 16.6213 97.536 17.496C96.9387 18.3493 96.0853 19.032 94.976 19.544C93.888 20.0347 92.5867 20.28 91.072 20.28L91.712 18.744C93.2907 18.744 94.6667 18.9893 95.84 19.48C97.0133 19.9493 97.92 20.6427 98.56 21.56C99.2213 22.456 99.552 23.5547 99.552 24.856C99.552 26.7973 98.7627 28.312 97.184 29.4C95.6267 30.4667 93.344 31 90.336 31H78.24ZM84.512 26.424H89.824C90.912 26.424 91.7333 26.2427 92.288 25.88C92.864 25.496 93.152 24.92 93.152 24.152C93.152 23.384 92.864 22.8187 92.288 22.456C91.7333 22.072 90.912 21.88 89.824 21.88H84.064V17.496H88.864C89.9307 17.496 90.7307 17.3147 91.264 16.952C91.7973 16.5893 92.064 16.0453 92.064 15.32C92.064 14.5947 91.7973 14.0613 91.264 13.72C90.7307 13.3573 89.9307 13.176 88.864 13.176H84.512V26.424ZM113.138 31V27.768L112.722 26.968V21.016C112.722 20.056 112.423 19.32 111.826 18.808C111.25 18.2747 110.322 18.008 109.042 18.008C108.21 18.008 107.367 18.1467 106.514 18.424C105.66 18.68 104.935 19.0427 104.338 19.512L102.29 15.384C103.271 14.744 104.444 14.2533 105.81 13.912C107.196 13.5493 108.572 13.368 109.938 13.368C112.754 13.368 114.93 14.0187 116.466 15.32C118.023 16.6 118.802 18.616 118.802 21.368V31H113.138ZM108.018 31.288C106.631 31.288 105.458 31.0533 104.498 30.584C103.538 30.1147 102.802 29.4747 102.29 28.664C101.799 27.8533 101.554 26.9467 101.554 25.944C101.554 24.8773 101.82 23.96 102.354 23.192C102.908 22.4027 103.751 21.8053 104.882 21.4C106.012 20.9733 107.474 20.76 109.266 20.76H113.362V23.928H110.098C109.116 23.928 108.423 24.088 108.018 24.408C107.634 24.728 107.442 25.1547 107.442 25.688C107.442 26.2213 107.644 26.648 108.05 26.968C108.455 27.288 109.01 27.448 109.714 27.448C110.375 27.448 110.972 27.288 111.506 26.968C112.06 26.6267 112.466 26.1147 112.722 25.432L113.554 27.672C113.234 28.8667 112.604 29.7733 111.666 30.392C110.748 30.9893 109.532 31.288 108.018 31.288ZM131.338 37.496C129.674 37.496 128.085 37.304 126.57 36.92C125.077 36.536 123.797 35.9707 122.73 35.224L124.938 30.968C125.664 31.544 126.56 31.992 127.626 32.312C128.714 32.6533 129.77 32.824 130.794 32.824C132.437 32.824 133.621 32.4613 134.346 31.736C135.072 31.032 135.434 29.9973 135.434 28.632V26.584L135.754 21.72L135.722 16.824V13.656H141.514V27.832C141.514 31.1173 140.629 33.5493 138.858 35.128C137.088 36.7067 134.581 37.496 131.338 37.496ZM130.282 30.104C128.746 30.104 127.328 29.7627 126.026 29.08C124.746 28.376 123.712 27.4053 122.922 26.168C122.154 24.9093 121.77 23.4267 121.77 21.72C121.77 20.0133 122.154 18.5413 122.922 17.304C123.712 16.0453 124.746 15.0747 126.026 14.392C127.328 13.7093 128.746 13.368 130.282 13.368C131.754 13.368 133.013 13.6667 134.058 14.264C135.104 14.84 135.893 15.7467 136.426 16.984C136.981 18.2213 137.258 19.8 137.258 21.72C137.258 23.64 136.981 25.2187 136.426 26.456C135.893 27.6933 135.104 28.6107 134.058 29.208C133.013 29.8053 131.754 30.104 130.282 30.104ZM131.722 25.272C132.448 25.272 133.088 25.1227 133.642 24.824C134.218 24.5253 134.666 24.1093 134.986 23.576C135.328 23.0427 135.498 22.424 135.498 21.72C135.498 21.016 135.328 20.3973 134.986 19.864C134.666 19.3307 134.218 18.9253 133.642 18.648C133.088 18.3493 132.448 18.2 131.722 18.2C130.997 18.2 130.346 18.3493 129.77 18.648C129.194 18.9253 128.736 19.3307 128.394 19.864C128.074 20.3973 127.914 21.016 127.914 21.72C127.914 22.424 128.074 23.0427 128.394 23.576C128.736 24.1093 129.194 24.5253 129.77 24.824C130.346 25.1227 130.997 25.272 131.722 25.272ZM145.421 31V13.656H151.501V31H145.421ZM148.461 11.736C147.351 11.736 146.455 11.4267 145.773 10.808C145.09 10.1893 144.749 9.42133 144.749 8.504C144.749 7.58667 145.09 6.81867 145.773 6.2C146.455 5.58133 147.351 5.272 148.461 5.272C149.57 5.272 150.466 5.57067 151.149 6.168C151.831 6.744 152.173 7.49067 152.173 8.408C152.173 9.368 151.831 10.168 151.149 10.808C150.487 11.4267 149.591 11.736 148.461 11.736Z" fill="#1F2937"/>
<path d="M88.576 64.448C85.2693 64.448 82.688 63.5413 80.832 61.728C78.976 59.9147 78.048 57.344 78.048 54.016V41.6H84.384V53.824C84.384 55.744 84.7573 57.12 85.504 57.952C86.272 58.784 87.3173 59.2 88.64 59.2C89.9627 59.2 90.9973 58.784 91.744 57.952C92.4907 57.12 92.864 55.744 92.864 53.824V41.6H99.104V54.016C99.104 57.344 98.176 59.9147 96.32 61.728C94.464 63.5413 91.8827 64.448 88.576 64.448ZM113.7 64V60.768L113.284 59.968V54.016C113.284 53.056 112.986 52.32 112.388 51.808C111.812 51.2747 110.884 51.008 109.604 51.008C108.772 51.008 107.93 51.1467 107.076 51.424C106.223 51.68 105.498 52.0427 104.9 52.512L102.852 48.384C103.834 47.744 105.007 47.2533 106.372 46.912C107.759 46.5493 109.135 46.368 110.5 46.368C113.316 46.368 115.492 47.0187 117.028 48.32C118.586 49.6 119.364 51.616 119.364 54.368V64H113.7ZM108.58 64.288C107.194 64.288 106.02 64.0533 105.06 63.584C104.1 63.1147 103.364 62.4747 102.852 61.664C102.362 60.8533 102.116 59.9467 102.116 58.944C102.116 57.8773 102.383 56.96 102.916 56.192C103.471 55.4027 104.314 54.8053 105.444 54.4C106.575 53.9733 108.036 53.76 109.828 53.76H113.924V56.928H110.66C109.679 56.928 108.986 57.088 108.58 57.408C108.196 57.728 108.004 58.1547 108.004 58.688C108.004 59.2213 108.207 59.648 108.612 59.968C109.018 60.288 109.572 60.448 110.276 60.448C110.938 60.448 111.535 60.288 112.068 59.968C112.623 59.6267 113.028 59.1147 113.284 58.432L114.116 60.672C113.796 61.8667 113.167 62.7733 112.228 63.392C111.311 63.9893 110.095 64.288 108.58 64.288ZM134.498 46.368C135.842 46.368 137.058 46.6453 138.146 47.2C139.234 47.7333 140.087 48.5653 140.706 49.696C141.346 50.8267 141.666 52.288 141.666 54.08V64H135.586V55.072C135.586 53.8347 135.33 52.9387 134.818 52.384C134.327 51.808 133.634 51.52 132.738 51.52C132.098 51.52 131.511 51.6693 130.978 51.968C130.445 52.2453 130.029 52.6827 129.73 53.28C129.431 53.8773 129.282 54.656 129.282 55.616V64H123.202V46.656H128.994V51.584L127.874 50.144C128.535 48.8853 129.442 47.9467 130.594 47.328C131.746 46.688 133.047 46.368 134.498 46.368ZM154.182 70.496C152.518 70.496 150.929 70.304 149.414 69.92C147.921 69.536 146.641 68.9707 145.574 68.224L147.782 63.968C148.507 64.544 149.403 64.992 150.47 65.312C151.558 65.6533 152.614 65.824 153.638 65.824C155.281 65.824 156.465 65.4613 157.19 64.736C157.915 64.032 158.278 62.9973 158.278 61.632V59.584L158.598 54.72L158.566 49.824V46.656H164.358V60.832C164.358 64.1173 163.473 66.5493 161.702 68.128C159.931 69.7067 157.425 70.496 154.182 70.496ZM153.126 63.104C151.59 63.104 150.171 62.7627 148.87 62.08C147.59 61.376 146.555 60.4053 145.766 59.168C144.998 57.9093 144.614 56.4267 144.614 54.72C144.614 53.0133 144.998 51.5413 145.766 50.304C146.555 49.0453 147.59 48.0747 148.87 47.392C150.171 46.7093 151.59 46.368 153.126 46.368C154.598 46.368 155.857 46.6667 156.902 47.264C157.947 47.84 158.737 48.7467 159.27 49.984C159.825 51.2213 160.102 52.8 160.102 54.72C160.102 56.64 159.825 58.2187 159.27 59.456C158.737 60.6933 157.947 61.6107 156.902 62.208C155.857 62.8053 154.598 63.104 153.126 63.104ZM154.566 58.272C155.291 58.272 155.931 58.1227 156.486 57.824C157.062 57.5253 157.51 57.1093 157.83 56.576C158.171 56.0427 158.342 55.424 158.342 54.72C158.342 54.016 158.171 53.3973 157.83 52.864C157.51 52.3307 157.062 51.9253 156.486 51.648C155.931 51.3493 155.291 51.2 154.566 51.2C153.841 51.2 153.19 51.3493 152.614 51.648C152.038 51.9253 151.579 52.3307 151.238 52.864C150.918 53.3973 150.758 54.016 150.758 54.72C150.758 55.424 150.918 56.0427 151.238 56.576C151.579 57.1093 152.038 57.5253 152.614 57.824C153.19 58.1227 153.841 58.272 154.566 58.272Z" fill="#1F2937"/>
<path d="M8.75 4.375C3.92383 4.375 0 8.29883 0 13.125V56.875C0 61.7012 3.92383 65.625 8.75 65.625H61.25C66.0762 65.625 70 61.7012 70 56.875V26.25C70 21.4238 66.0762 17.5 61.25 17.5H10.9375C9.73438 17.5 8.75 16.5156 8.75 15.3125C8.75 14.1094 9.73438 13.125 10.9375 13.125H61.25C63.6699 13.125 65.625 11.1699 65.625 8.75C65.625 6.33008 63.6699 4.375 61.25 4.375H8.75ZM56.875 37.1875C58.0353 37.1875 59.1481 37.6484 59.9686 38.4689C60.7891 39.2894 61.25 40.4022 61.25 41.5625C61.25 42.7228 60.7891 43.8356 59.9686 44.6561C59.1481 45.4766 58.0353 45.9375 56.875 45.9375C55.7147 45.9375 54.6019 45.4766 53.7814 44.6561C52.9609 43.8356 52.5 42.7228 52.5 41.5625C52.5 40.4022 52.9609 39.2894 53.7814 38.4689C54.6019 37.6484 55.7147 37.1875 56.875 37.1875Z" fill="#10B981"/>
</svg>
